<svg width="329" height="158" viewBox="0 0 329 158" fill="none" xmlns="http://www.w3.org/2000/svg">
<g clip-path="url(#clip0_509_8623)">
<path d="M321.16 14.73L298.88 1.86C294.57 -0.62 289.23 -0.62 284.94 1.86L262.64 14.73C258.35 17.21 255.67 21.84 255.67 26.81V52.54C255.67 57.52 258.35 62.13 262.65 64.62L284.93 77.48C285.5 77.82 286.1 78.09 286.7 78.34V91.7C286.7 93.06 287.81 94.17 289.18 94.17H293.86C295.31 94.17 296.49 92.99 296.49 91.55V78.59C297.31 78.29 298.11 77.93 298.88 77.48L321.18 64.62C325.47 62.14 328.15 57.52 328.15 52.54V26.81C328.15 21.84 325.47 17.22 321.17 14.73M286.69 67.21L267.53 56.14C266.24 55.39 265.45 54.02 265.45 52.54V46.77L286.69 58.31V67.21ZM286.69 49.02L265.45 37.48V28.87L286.69 40.41V49.02ZM291.92 32.11L271.4 20.96L289.82 10.32C290.46 9.95 291.18 9.77 291.89 9.77C292.6 9.77 293.33 9.95 293.97 10.32L311.51 20.46L291.91 32.11H291.92ZM318.35 52.54C318.35 54.02 317.56 55.4 316.28 56.14L296.48 67.57V40.79L318.35 27.77V52.54Z" fill="#7EDF00"/>
<path d="M38.6 94.35C50.81 94.3 62.47 89.03 69.76 79.07C74.81 72.18 77.18 63.48 77.18 55.01C77.18 46.54 74.81 37.86 69.76 30.97C62.47 21.02 50.81 15.74 38.6 15.7C26.37 15.74 14.74 21.02 7.42 30.97C2.39 37.86 0 46.56 0 55.01C0 63.46 2.39 72.18 7.42 79.07C14.74 89.03 26.37 94.3 38.6 94.35ZM19.76 45.99C22.58 37.53 29.3 30.79 38.6 30.74C47.88 30.79 54.61 37.53 57.44 45.99C58.34 48.68 58.93 51.96 58.93 55.01C58.93 58.06 58.34 61.36 57.44 64.06C54.6 72.5 47.87 79.25 38.6 79.3C29.3 79.25 22.58 72.5 19.76 64.06C18.86 61.36 18.26 58.07 18.26 55.01C18.26 51.95 18.86 48.68 19.76 45.99Z" fill="#006D57"/>
<path d="M204.64 94.16C217.06 94.63 225.38 92.48 231.6 88.89C232.82 88.18 233.09 87.32 233.09 85.08V75.04C233.09 72.98 231.86 72.04 229.94 73.27C223.24 77.54 215.15 80.15 204.87 79.34C194.51 78.55 185.98 71.28 185.15 61.02H236.28C237.4 61.02 238.31 60.17 238.36 58.94C239.21 44.94 235.19 15.53 203.72 15.53C180.71 15.53 170.75 30.99 167.39 44.05C166.49 47.51 166.07 51.26 166.07 54.84C166.07 63.3 168.43 71.99 173.47 78.89C180.77 88.85 192.44 93.7 204.64 94.16ZM203.73 30.56C211.27 30.56 220.12 34.87 220.12 47.16H185.31C185.31 41.45 190.08 30.56 203.73 30.56Z" fill="#006D57"/>
<path d="M156.46 42.22C156.4 28.73 144.54 15.55 122.63 15.55C99.6099 15.55 87.8699 29.02 86.7899 44.25C86.7199 45.3 86.7899 45.86 86.7899 47.2V92.35C86.7899 93.44 87.7799 94.35 89.0299 94.35H101.99C103.2 94.35 104.22 93.44 104.22 92.35V47.2C104.22 37.59 108.99 30.59 122.64 30.59C130.18 30.59 139.03 34.9 139.03 47.2H139.05V92.28C139.05 93.41 140.03 94.35 141.29 94.35H154.24C155.46 94.35 156.48 93.4 156.48 92.28V42.23" fill="#006D57"/>
<path d="M222.1 147.49C225.62 147.49 228.97 145.98 231.06 143.12C232.51 141.14 233.19 138.64 233.19 136.18C233.19 133.72 232.51 131.27 231.06 129.28C228.97 126.42 225.62 124.88 222.1 124.87C218.58 124.88 215.23 126.42 213.13 129.28C211.69 131.26 211 133.76 211 136.18C211 138.6 211.69 141.14 213.13 143.12C215.23 145.98 218.59 147.48 222.1 147.49ZM216.68 133.6C217.49 131.17 219.42 129.23 222.1 129.22C224.77 129.22 226.7 131.17 227.52 133.6C227.78 134.37 227.95 135.31 227.95 136.18C227.95 137.05 227.77 138.03 227.52 138.8C226.71 141.23 224.78 143.17 222.1 143.18C219.43 143.18 217.5 141.23 216.68 138.8C216.42 138.03 216.25 137.08 216.25 136.18C216.25 135.28 216.43 134.37 216.68 133.6Z" fill="#FF5A00"/>
<path d="M141.52 147.59H145.24C145.59 147.59 145.89 147.3 145.89 146.94V116.34C145.89 115.97 145.59 115.69 145.24 115.69H141.52C141.17 115.69 140.87 115.98 140.87 116.34V146.94C140.87 147.31 141.17 147.59 141.52 147.59Z" fill="#FF5A00"/>
<path d="M132.77 147.59H136.49C136.84 147.59 137.14 147.3 137.14 146.94V116.34C137.14 115.97 136.84 115.69 136.49 115.69H132.77C132.42 115.69 132.13 115.98 132.13 116.34V146.94C132.13 147.31 132.42 147.59 132.77 147.59Z" fill="#FF5A00"/>
<path d="M198.11 147.59H201.83C202.2 147.59 202.48 147.3 202.48 146.94V134.45C202.48 130.55 205.07 128.68 209.28 129.55C209.78 129.67 210.18 129.4 210.16 128.82V126.21C210.16 125.53 210.09 125.27 209.6 125.15C208.91 124.95 207.43 124.88 207.02 124.88C204.3 124.88 201.87 125.97 200.2 127.64C198.98 128.86 197.46 130.79 197.46 134.14V146.94C197.46 147.31 197.75 147.59 198.1 147.59" fill="#FF5A00"/>
<path d="M183.13 147.49C185.42 147.49 187.65 146.85 189.51 145.59V148.33C189.51 152.02 186.27 152.71 184.19 152.84C182.79 152.94 180.81 152.74 179.91 152.6C179.34 152.53 178.93 152.6 178.93 153.22V156.51C178.93 156.77 179.12 157.03 179.53 157.05C184.35 157.47 187.61 157.38 190.05 155.98C191.79 155 192.98 153.37 193.61 151.45C194.07 150.09 194.22 148.41 194.22 146.93V136.19C194.22 133.75 193.55 131.32 192.09 129.29C189.99 126.43 186.65 124.89 183.13 124.88C179.61 124.89 176.26 126.43 174.16 129.29C171.3 133.21 171.3 139.2 174.16 143.12C176.26 145.98 179.62 147.48 183.13 147.49ZM177.71 133.6C178.51 131.17 180.45 129.22 183.13 129.22C189.12 129.22 189.31 135.32 189.31 136.18C189.31 137.04 189.12 143.19 183.13 143.19C180.46 143.19 178.51 141.24 177.71 138.81C177.44 138.04 177.28 137.09 177.28 136.19C177.28 135.29 177.44 134.38 177.71 133.61" fill="#FF5A00"/>
<path d="M159.86 147.52C163.43 147.64 165.81 147.03 167.6 146C167.97 145.81 168.03 145.55 168.03 144.9V142.01C168.03 141.41 167.68 141.15 167.12 141.51C165.19 142.73 162.87 143.49 159.91 143.25C156.94 143.05 154.48 140.93 154.24 138H168.94C169.27 138 169.52 137.74 169.55 137.4C169.79 133.37 168.64 124.91 159.59 124.91C152.96 124.91 150.1 129.35 149.14 133.11C148.88 134.1 148.76 135.17 148.76 136.22C148.76 138.64 149.44 141.13 150.89 143.12C152.99 146 156.35 147.4 159.86 147.53M159.59 129.21C161.76 129.21 164.3 130.45 164.3 134H154.28C154.28 132.33 155.65 129.21 159.59 129.21Z" fill="#FF5A00"/>
<path d="M111.33 145.93C112.76 147.06 114.71 147.59 117.11 147.59H128.08C128.43 147.59 128.72 147.3 128.72 146.97V133.98C128.72 131.02 128.06 128.75 126.63 127.23C125.16 125.64 122.35 124.91 119.72 124.91C117.09 124.91 114.37 125.58 112.13 126.92C111.98 127 111.9 127.16 111.9 127.33V127.36L112.09 130.63C112.13 131.08 112.65 131.2 113.05 130.96C116.29 128.94 120.19 128.57 122.16 129.56C123.54 130.25 123.91 131.75 123.91 132.68V133.16H118.49C116.15 133.16 109.01 134 109.01 140.59V140.71C109.01 142.96 109.78 144.77 111.32 145.95M118.79 137.12H123.92V143.58H117.44C116.58 143.53 115.82 143.28 115.15 142.77C114.4 142.19 114.06 141.51 114.06 140.64C114.07 139.43 114.86 137.12 118.78 137.12" fill="#FF5A00"/>
<path d="M62.9501 126.39C63.4301 126.08 64.1401 125.77 65.1101 125.43C66.0601 125.1 67.1701 124.91 68.4401 124.91C70.0001 124.91 71.3901 125.21 72.5901 125.77C73.8101 126.33 74.8301 127.11 75.6701 128.12C76.5101 129.11 77.1401 130.32 77.5801 131.7C78.0001 133.11 78.2201 134.65 78.2201 136.32C78.2201 138.08 77.9601 139.65 77.4501 141.07C76.9301 142.47 76.2001 143.68 75.2501 144.65C74.3001 145.63 73.1601 146.36 71.8201 146.92C70.4901 147.45 68.9801 147.71 67.3001 147.71C65.4901 147.71 63.8901 147.57 62.4901 147.33C61.0901 147.09 59.9501 146.83 59.0601 146.58V115.71L62.9601 115.69V126.4H62.9501V126.39ZM62.9501 143.81C63.3301 143.92 63.8901 144.03 64.6101 144.11C65.3201 144.23 66.2001 144.27 67.2601 144.27C69.3601 144.27 71.0301 143.56 72.2801 142.19C73.5401 140.81 74.1701 138.85 74.1701 136.31C74.1701 135.2 74.0601 134.15 73.8401 133.17C73.6101 132.19 73.2401 131.35 72.7401 130.62C72.2501 129.93 71.6001 129.37 70.8001 128.96C70.0101 128.55 69.0501 128.34 67.9401 128.34C66.8301 128.34 65.9001 128.53 65.0101 128.88C64.1101 129.26 63.4401 129.64 62.9601 130.01V143.8L62.9501 143.81Z" fill="#FF5A00"/>
<path d="M79.8001 151.26C80.1001 151.4 80.5101 151.55 80.9901 151.65C81.4801 151.79 81.9501 151.84 82.4301 151.84C83.9801 151.84 85.1701 151.5 86.0301 150.82C86.9001 150.13 87.6901 149.03 88.3801 147.49C86.6301 144.14 84.9901 140.58 83.4701 136.83C81.9501 133.07 80.6901 129.27 79.6801 125.43H83.8601C84.1701 126.67 84.5401 128.04 84.9701 129.48C85.4001 130.95 85.8801 132.44 86.4101 133.97C86.9401 135.5 87.5101 137.04 88.1301 138.56C88.7401 140.11 89.3801 141.59 90.0401 143.01C91.1001 140.08 92.0201 137.17 92.8101 134.29C93.6001 131.43 94.3301 128.47 95.0401 125.42H99.0401C98.0501 129.51 96.9201 133.44 95.7001 137.24C94.4801 141.03 93.1501 144.56 91.7201 147.84C91.1601 149.1 90.5801 150.18 89.9801 151.08C89.3801 151.99 88.7201 152.74 87.9801 153.32C87.2601 153.92 86.4501 154.34 85.5401 154.62C84.6301 154.91 83.6101 155.04 82.4601 155.04C82.1601 155.04 81.8401 155.01 81.5001 154.96C81.1701 154.92 80.8501 154.88 80.5201 154.81C80.1901 154.74 79.9101 154.66 79.6401 154.58C79.3801 154.5 79.1901 154.43 79.0801 154.35L79.7901 151.23V151.26H79.8001Z" fill="#FF5A00"/>
</g>
<defs>
<clipPath id="clip0_509_8623">
<rect width="328.15" height="157.27" fill="white"/>
</clipPath>
</defs>
</svg>
